<svg width="40" height="41" viewBox="0 0 40 41" fill="none" xmlns="http://www.w3.org/2000/svg">
<path d="M35 20.5V32.1667C35 33.0507 34.6488 33.8986 34.0237 34.5237C33.3986 35.1488 32.5507 35.5 31.6667 35.5H8.33333C7.44928 35.5 6.60143 35.1488 5.97631 34.5237C5.35119 33.8986 5 33.0507 5 32.1667V8.83333C5 7.94928 5.35119 7.10143 5.97631 6.47631C6.60143 5.85119 7.44928 5.5 8.33333 5.5H20" stroke="#BBBBBB" stroke-width="3" stroke-linecap="round" stroke-linejoin="round"/>
<path d="M26.6667 8.83337H36.6667" stroke="#BBBBBB" stroke-width="3" stroke-linecap="round" stroke-linejoin="round"/>
<path d="M31.6667 3.83337V13.8334" stroke="#BBBBBB" stroke-width="3" stroke-linecap="round" stroke-linejoin="round"/>
<path d="M15 18.8333C16.841 18.8333 18.3334 17.3409 18.3334 15.5C18.3334 13.659 16.841 12.1666 15 12.1666C13.1591 12.1666 11.6667 13.659 11.6667 15.5C11.6667 17.3409 13.1591 18.8333 15 18.8333Z" stroke="#BBBBBB" stroke-width="3" stroke-linecap="round" stroke-linejoin="round"/>
<path d="M35 25.5L29.8567 20.3567C29.2316 19.7318 28.3839 19.3807 27.5 19.3807C26.6161 19.3807 25.7684 19.7318 25.1433 20.3567L10 35.5" stroke="#BBBBBB" stroke-width="3" stroke-linecap="round" stroke-linejoin="round"/>
</svg>
