<svg width="360" height="222" viewBox="0 0 360 222" fill="none" xmlns="http://www.w3.org/2000/svg">
<rect x="0.5" y="0.5" width="359" height="221" fill="#EEEEEE"/>
<rect x="0.5" y="0.5" width="359" height="221" stroke="#E0E0E0"/>
<path d="M195 96.5V108.167C195 109.051 194.649 109.899 194.024 110.524C193.399 111.149 192.551 111.5 191.667 111.5H168.333C167.449 111.5 166.601 111.149 165.976 110.524C165.351 109.899 165 109.051 165 108.167V84.8333C165 83.9493 165.351 83.1014 165.976 82.4763C166.601 81.8512 167.449 81.5 168.333 81.5H180" stroke="#BBBBBB" stroke-width="3" stroke-linecap="round" stroke-linejoin="round"/>
<path d="M186.667 84.8334H196.667" stroke="#BBBBBB" stroke-width="3" stroke-linecap="round" stroke-linejoin="round"/>
<path d="M191.667 79.8334V89.8334" stroke="#BBBBBB" stroke-width="3" stroke-linecap="round" stroke-linejoin="round"/>
<path d="M175 94.8333C176.841 94.8333 178.333 93.3409 178.333 91.5C178.333 89.659 176.841 88.1666 175 88.1666C173.159 88.1666 171.667 89.659 171.667 91.5C171.667 93.3409 173.159 94.8333 175 94.8333Z" stroke="#BBBBBB" stroke-width="3" stroke-linecap="round" stroke-linejoin="round"/>
<path d="M195 101.5L189.857 96.3567C189.232 95.7318 188.384 95.3807 187.5 95.3807C186.616 95.3807 185.768 95.7318 185.143 96.3567L170 111.5" stroke="#BBBBBB" stroke-width="3" stroke-linecap="round" stroke-linejoin="round"/>
<path d="M114.225 130.93V131.326C114.225 131.85 114.206 132.349 114.17 132.823C114.138 133.293 114.067 133.796 113.958 134.334H115.592V135.387H104.449V134.334H112.652C112.753 133.846 112.823 133.384 112.864 132.946L105.693 133.24L105.529 132.229L112.926 132.023C112.935 131.786 112.939 131.445 112.939 130.998H105.844V129.959H114.225V130.93ZM105.721 136.412H114.307V139.379H107.047V140.486H114.744V141.512H105.748V138.408H113.021V137.41H105.721V136.412ZM126.693 136.904H125.395V129.426H126.693V136.904ZM117.15 130.137H122.783V133.637H118.449V135.209C119.598 135.2 120.593 135.17 121.437 135.12C122.28 135.07 123.143 134.981 124.027 134.854L124.191 135.906C123.275 136.048 122.384 136.146 121.519 136.2C120.653 136.25 119.648 136.275 118.504 136.275H118.203H117.178V132.625H121.498V131.189H117.15V130.137ZM118.395 137.533H126.693V141.662H125.395V138.6H118.395V137.533ZM134.691 132.488H128.607V131.436H131.014V129.768H132.299V131.436H134.691V132.488ZM129.004 136.043C129.004 135.501 129.116 135.015 129.339 134.587C129.567 134.159 129.883 133.826 130.289 133.589C130.695 133.347 131.15 133.227 131.656 133.227C132.167 133.227 132.622 133.347 133.023 133.589C133.429 133.826 133.746 134.159 133.974 134.587C134.206 135.015 134.322 135.501 134.322 136.043C134.322 136.594 134.206 137.087 133.974 137.52C133.746 137.952 133.429 138.29 133.023 138.531C132.622 138.768 132.167 138.887 131.656 138.887C131.15 138.887 130.695 138.768 130.289 138.531C129.883 138.29 129.567 137.952 129.339 137.52C129.116 137.087 129.004 136.594 129.004 136.043ZM130.152 136.043C130.152 136.385 130.216 136.688 130.344 136.952C130.471 137.212 130.649 137.415 130.877 137.561C131.105 137.706 131.365 137.779 131.656 137.779C131.948 137.779 132.208 137.706 132.436 137.561C132.668 137.415 132.848 137.212 132.976 136.952C133.108 136.688 133.174 136.385 133.174 136.043C133.174 135.71 133.108 135.412 132.976 135.147C132.848 134.883 132.668 134.678 132.436 134.532C132.208 134.382 131.948 134.307 131.656 134.307C131.365 134.307 131.105 134.382 130.877 134.532C130.649 134.678 130.471 134.883 130.344 135.147C130.216 135.412 130.152 135.71 130.152 136.043ZM135.252 129.686H136.482V134.512H137.891V129.412H139.121V141.662H137.891V135.578H136.482V141.088H135.252V129.686ZM145.15 132.529C145.15 133.272 145.28 134.001 145.54 134.717C145.804 135.428 146.174 136.059 146.647 136.61C147.121 137.162 147.666 137.574 148.281 137.848L147.488 138.887C146.805 138.54 146.205 138.041 145.69 137.39C145.175 136.733 144.781 135.981 144.508 135.134C144.234 136.032 143.836 136.831 143.312 137.533C142.792 138.23 142.184 138.759 141.486 139.119L140.666 138.066C141.286 137.77 141.835 137.333 142.313 136.754C142.797 136.171 143.17 135.51 143.435 134.771C143.703 134.029 143.838 133.281 143.838 132.529V130.438H145.15V132.529ZM146.928 133.486H149.662V129.412H150.947V141.689H149.662V134.539H146.928V133.486ZM166.396 141.689H165.098V129.412H166.396V141.689ZM156.676 134.621C156.676 133.764 156.81 133.012 157.079 132.365C157.348 131.714 157.722 131.212 158.2 130.861C158.683 130.506 159.232 130.328 159.848 130.328C160.454 130.328 160.996 130.506 161.475 130.861C161.953 131.212 162.327 131.714 162.596 132.365C162.869 133.012 163.006 133.764 163.006 134.621C163.006 135.487 162.869 136.246 162.596 136.897C162.327 137.549 161.953 138.05 161.475 138.401C160.996 138.752 160.454 138.928 159.848 138.928C159.232 138.928 158.683 138.752 158.2 138.401C157.722 138.05 157.348 137.549 157.079 136.897C156.81 136.246 156.676 135.487 156.676 134.621ZM157.934 134.621C157.934 135.259 158.013 135.815 158.173 136.289C158.332 136.763 158.556 137.128 158.843 137.383C159.134 137.638 159.469 137.766 159.848 137.766C160.221 137.766 160.552 137.638 160.839 137.383C161.126 137.128 161.349 136.763 161.509 136.289C161.668 135.815 161.748 135.259 161.748 134.621C161.748 133.992 161.668 133.443 161.509 132.974C161.349 132.5 161.126 132.135 160.839 131.88C160.552 131.62 160.221 131.49 159.848 131.49C159.469 131.49 159.134 131.62 158.843 131.88C158.556 132.135 158.332 132.5 158.173 132.974C158.013 133.443 157.934 133.992 157.934 134.621ZM174.777 138.641H169.035V130.588H174.777V138.641ZM173.52 137.588V131.613H170.32V137.588H173.52ZM177.197 129.412H178.496V141.689H177.197V129.412ZM184.963 133.021C184.963 133.696 185.1 134.366 185.373 135.031C185.651 135.697 186.034 136.291 186.521 136.815C187.014 137.34 187.57 137.734 188.189 137.998L187.479 139.01C186.763 138.695 186.13 138.219 185.578 137.581C185.027 136.943 184.607 136.212 184.32 135.387C184.033 136.271 183.614 137.062 183.062 137.759C182.511 138.456 181.882 138.978 181.176 139.324L180.424 138.299C181.03 138.016 181.577 137.595 182.064 137.034C182.557 136.469 182.942 135.833 183.22 135.127C183.502 134.421 183.646 133.719 183.65 133.021V131.723H180.848V130.643H187.752V131.723H184.963V133.021ZM189.297 129.412H190.596V141.662H189.297V129.412ZM199.359 129.973C199.893 129.968 200.38 130.062 200.822 130.253C201.264 130.444 201.631 130.715 201.923 131.066C202.215 131.413 202.404 131.814 202.49 132.27H204.883V129.412H206.182V135.988H204.883V133.336H202.497C202.415 133.801 202.228 134.211 201.937 134.566C201.645 134.922 201.276 135.198 200.829 135.394C200.387 135.59 199.897 135.688 199.359 135.688C198.74 135.688 198.186 135.567 197.698 135.325C197.211 135.079 196.83 134.74 196.557 134.307C196.283 133.869 196.146 133.372 196.146 132.816C196.146 132.27 196.283 131.78 196.557 131.347C196.83 130.909 197.211 130.57 197.698 130.328C198.19 130.087 198.744 129.968 199.359 129.973ZM197.391 132.816C197.391 133.158 197.473 133.466 197.637 133.739C197.805 134.008 198.038 134.218 198.334 134.368C198.635 134.519 198.977 134.594 199.359 134.594C199.733 134.594 200.066 134.519 200.357 134.368C200.654 134.218 200.884 134.008 201.048 133.739C201.216 133.47 201.301 133.163 201.301 132.816C201.301 132.47 201.216 132.162 201.048 131.894C200.884 131.625 200.654 131.417 200.357 131.271C200.066 131.126 199.733 131.053 199.359 131.053C198.977 131.053 198.635 131.126 198.334 131.271C198.038 131.417 197.805 131.625 197.637 131.894C197.473 132.162 197.391 132.47 197.391 132.816ZM198.197 136.576H199.482V137.998H204.883V136.576H206.182V141.512H198.197V136.576ZM204.883 140.445V139.023H199.482V140.445H204.883ZM219.279 140.199H208.068V139.105H213.004V136.959H209.436V133.062H216.627V131.34H209.408V130.273H217.912V134.102H210.721V135.893H218.199V136.959H214.289V139.105H219.279V140.199ZM230.094 136.289H221.562V130.506H229.984V131.572H222.848V135.223H230.094V136.289ZM220.168 138.969H231.379V140.049H220.168V138.969ZM241.811 134.375H243.779V135.455H241.811V141.662H240.525V129.412H241.811V134.375ZM232.199 131.326H235.221V129.576H236.52V131.326H239.459V132.393H232.199V131.326ZM232.828 136.139C232.828 135.592 232.958 135.102 233.218 134.669C233.482 134.236 233.844 133.899 234.305 133.657C234.77 133.416 235.294 133.295 235.877 133.295C236.456 133.295 236.975 133.416 237.436 133.657C237.9 133.899 238.265 134.236 238.529 134.669C238.794 135.102 238.926 135.592 238.926 136.139C238.926 136.69 238.794 137.182 238.529 137.615C238.265 138.048 237.9 138.388 237.436 138.634C236.975 138.875 236.456 138.996 235.877 138.996C235.294 138.996 234.77 138.875 234.305 138.634C233.844 138.388 233.482 138.048 233.218 137.615C232.958 137.182 232.828 136.69 232.828 136.139ZM234.072 136.139C234.072 136.49 234.147 136.799 234.298 137.068C234.453 137.337 234.667 137.545 234.94 137.69C235.218 137.836 235.531 137.907 235.877 137.902C236.219 137.907 236.526 137.836 236.8 137.69C237.073 137.545 237.287 137.337 237.442 137.068C237.602 136.799 237.682 136.49 237.682 136.139C237.682 135.797 237.602 135.492 237.442 135.223C237.287 134.954 237.073 134.744 236.8 134.594C236.526 134.439 236.219 134.361 235.877 134.361C235.531 134.361 235.218 134.439 234.94 134.594C234.667 134.744 234.453 134.954 234.298 135.223C234.147 135.492 234.072 135.797 234.072 136.139ZM254.553 141.662H253.24V129.412H254.553V141.662ZM244.49 138.381C246.094 137.615 247.313 136.683 248.147 135.585C248.981 134.487 249.462 133.213 249.59 131.764H245.078V130.725H250.902C250.902 132.62 250.449 134.304 249.542 135.776C248.64 137.248 247.184 138.467 245.174 139.434L244.49 138.381Z" fill="#BBBBBB"/>
</svg>
