<svg width="64" height="64" viewBox="0 0 64 64" fill="none" xmlns="http://www.w3.org/2000/svg">
<rect width="64" height="64" rx="32" fill="#FFCB00" fill-opacity="0.1"/>
<path d="M30 21.25V33.25C30 34.48 31.02 35.5 32.25 35.5C33.48 35.5 34.5 34.48 34.5 33.25V21.25C34.5 20.02 33.48 19 32.25 19C31.02 19 30 20.02 30 21.25Z" fill="#FFCB00"/>
<path d="M33.84 40.66C33 39.82 31.5 39.82 30.66 40.66C30.45 40.87 30.3 41.11 30.18 41.38C30.06 41.68 30 41.95 30 42.25C30 42.85 30.24 43.42 30.66 43.84C31.08 44.26 31.65 44.5 32.25 44.5C32.85 44.5 33.42 44.26 33.84 43.84C34.26 43.42 34.5 42.85 34.5 42.25C34.5 41.95 34.44 41.68 34.32 41.38C34.23 41.11 34.05 40.87 33.84 40.66Z" fill="#FFCB00"/>
</svg>
